<svg width="16" height="16" viewBox="0 0 16 16" fill="none" xmlns="http://www.w3.org/2000/svg">
<path d="M12.4466 12.4467L13.9266 11.7067V9.85337M9.47991 6.52004L7.99991 7.26004L9.47991 6.52004ZM7.99991 7.26004L6.51991 6.52004L7.99991 7.26004ZM7.99991 7.26004V9.11337V7.26004ZM13.9266 4.29338L12.4466 5.03338L13.9266 4.29338ZM13.9266 4.29338L12.4466 3.55338L13.9266 4.29338ZM13.9266 4.29338V6.14671V4.29338ZM9.47991 2.07337L7.99991 1.33337L6.51991 2.07337H9.47991ZM2.07324 4.29338L3.55324 3.55338L2.07324 4.29338ZM2.07324 4.29338L3.55324 5.03338L2.07324 4.29338ZM2.07324 4.29338V6.14671V4.29338ZM7.99991 14.6667L6.51991 13.9267L7.99991 14.6667ZM7.99991 14.6667L9.47991 13.9267L7.99991 14.6667ZM7.99991 14.6667V12.8134V14.6667ZM3.55324 12.4467L2.07324 11.7067V9.85337L3.55324 12.4467Z" stroke="#5543DB" stroke-linecap="round" stroke-linejoin="round"/>
</svg>
