<svg width="16" height="17" viewBox="0 0 16 17" fill="none" xmlns="http://www.w3.org/2000/svg">
<path d="M11.7709 10.3853L10.8282 9.44263L11.7709 8.49996C12.0185 8.25233 12.2149 7.95835 12.3489 7.63481C12.4829 7.31127 12.5519 6.9645 12.5519 6.6143C12.5519 6.26409 12.4829 5.91732 12.3489 5.59378C12.2149 5.27024 12.0185 4.97626 11.7709 4.72863C11.5232 4.481 11.2292 4.28457 10.9057 4.15055C10.5822 4.01654 10.2354 3.94756 9.88519 3.94756C9.53499 3.94756 9.18822 4.01654 8.86467 4.15055C8.54113 4.28457 8.24715 4.481 7.99952 4.72863L7.05685 5.67129L6.11419 4.72863L7.05685 3.78596C7.80906 3.04591 8.82323 2.63307 9.87844 2.63736C10.9337 2.64166 11.9444 3.06275 12.6906 3.8089C13.4367 4.55506 13.8578 5.56583 13.8621 6.62104C13.8664 7.67626 13.4536 8.69042 12.7135 9.44263L11.7709 10.3853ZM9.88485 12.2713L8.94219 13.214C8.57187 13.5904 8.13069 13.8897 7.6441 14.0948C7.15751 14.2998 6.63513 14.4065 6.10711 14.4086C5.57908 14.4108 5.05586 14.3084 4.56761 14.1073C4.07937 13.9062 3.63577 13.6105 3.26239 13.2371C2.88902 12.8637 2.59327 12.4201 2.39219 11.9319C2.19112 11.4436 2.0887 10.9204 2.09085 10.3924C2.093 9.86435 2.19968 9.34198 2.40472 8.85539C2.60976 8.36879 2.90912 7.92761 3.28552 7.5573L4.22819 6.61463L5.17085 7.5573L4.22819 8.49996C3.98056 8.74759 3.78413 9.04157 3.65011 9.36511C3.5161 9.68866 3.44712 10.0354 3.44712 10.3856C3.44712 10.7358 3.5161 11.0826 3.65011 11.4061C3.78413 11.7297 3.98056 12.0237 4.22819 12.2713C4.47582 12.5189 4.7698 12.7154 5.09334 12.8494C5.41688 12.9834 5.76365 13.0524 6.11385 13.0524C6.46406 13.0524 6.81083 12.9834 7.13437 12.8494C7.45791 12.7154 7.75189 12.5189 7.99952 12.2713L8.94219 11.3286L9.88485 12.2713ZM9.88485 5.67129L10.8282 6.61463L6.11419 11.328L5.17085 10.3853L9.88485 5.67196V5.67129Z" fill="#5543DB"/>
</svg>
