<svg width="1440" height="1024" viewBox="0 0 1440 1024" fill="none" xmlns="http://www.w3.org/2000/svg">
<mask id="mask0_8_1053" style="mask-type:alpha" maskUnits="userSpaceOnUse" x="0" y="0" width="1440" height="1041">
<rect width="1440" height="1041" fill="url(#paint0_linear_8_1053)"/>
</mask>
<g mask="url(#mask0_8_1053)">
<line x1="0.5" y1="-2.18557e-08" x2="0.500045" y2="1040" stroke="#1F1F1F" stroke-opacity="0.1"/>
<line x1="80.5" y1="-2.18557e-08" x2="80.5" y2="1040" stroke="#1F1F1F" stroke-opacity="0.1"/>
<line x1="160.5" y1="-2.18557e-08" x2="160.5" y2="1040" stroke="#1F1F1F" stroke-opacity="0.1"/>
<line x1="240.5" y1="-2.18557e-08" x2="240.5" y2="1040" stroke="#1F1F1F" stroke-opacity="0.1"/>
<line x1="320.5" y1="-2.18557e-08" x2="320.5" y2="1040" stroke="#1F1F1F" stroke-opacity="0.1"/>
<line x1="400.5" y1="-2.18557e-08" x2="400.5" y2="1040" stroke="#1F1F1F" stroke-opacity="0.1"/>
<line x1="480.5" y1="-2.18557e-08" x2="480.5" y2="1040" stroke="#1F1F1F" stroke-opacity="0.1"/>
<line x1="560.5" y1="-2.18557e-08" x2="560.5" y2="1040" stroke="#1F1F1F" stroke-opacity="0.1"/>
<line x1="640.5" y1="-2.18557e-08" x2="640.5" y2="1040" stroke="#1F1F1F" stroke-opacity="0.1"/>
<line x1="720.5" y1="-2.18557e-08" x2="720.5" y2="1040" stroke="#1F1F1F" stroke-opacity="0.1"/>
<line x1="800.5" y1="-2.18557e-08" x2="800.5" y2="1040" stroke="#1F1F1F" stroke-opacity="0.1"/>
<line x1="880.5" y1="-2.18557e-08" x2="880.5" y2="1040" stroke="#1F1F1F" stroke-opacity="0.1"/>
<line x1="960.5" y1="-2.18557e-08" x2="960.5" y2="1040" stroke="#1F1F1F" stroke-opacity="0.1"/>
<line x1="1040.5" y1="-2.18557e-08" x2="1040.5" y2="1040" stroke="#1F1F1F" stroke-opacity="0.1"/>
<line x1="1120.5" y1="-2.18557e-08" x2="1120.5" y2="1040" stroke="#1F1F1F" stroke-opacity="0.1"/>
<line x1="1200.5" y1="-2.18557e-08" x2="1200.5" y2="1040" stroke="#1F1F1F" stroke-opacity="0.1"/>
<line x1="1280.5" y1="-2.18557e-08" x2="1280.5" y2="1040" stroke="#1F1F1F" stroke-opacity="0.1"/>
<line x1="1360.5" y1="-2.18557e-08" x2="1360.5" y2="1040" stroke="#1F1F1F" stroke-opacity="0.1"/>
<line y1="79.5" x2="1440" y2="79.5" stroke="#1F1F1F" stroke-opacity="0.1"/>
<line y1="159.5" x2="1440" y2="159.5" stroke="#1F1F1F" stroke-opacity="0.1"/>
<line y1="239.5" x2="1440" y2="239.5" stroke="#1F1F1F" stroke-opacity="0.1"/>
<line y1="319.5" x2="1440" y2="319.5" stroke="#1F1F1F" stroke-opacity="0.1"/>
<line y1="399.5" x2="1440" y2="399.5" stroke="#1F1F1F" stroke-opacity="0.1"/>
<line y1="479.5" x2="1440" y2="479.5" stroke="#1F1F1F" stroke-opacity="0.1"/>
<line y1="559.5" x2="1440" y2="559.5" stroke="#1F1F1F" stroke-opacity="0.1"/>
<line y1="639.5" x2="1440" y2="639.5" stroke="#1F1F1F" stroke-opacity="0.1"/>
<line y1="719.5" x2="1440" y2="719.5" stroke="#1F1F1F" stroke-opacity="0.1"/>
<line y1="799.5" x2="1440" y2="799.5" stroke="#1F1F1F" stroke-opacity="0.1"/>
<line y1="879.5" x2="1440" y2="879.5" stroke="#1F1F1F" stroke-opacity="0.1"/>
<line y1="959.5" x2="1440" y2="959.5" stroke="#1F1F1F" stroke-opacity="0.1"/>
</g>
<defs>
<linearGradient id="paint0_linear_8_1053" x1="0" y1="0" x2="1455.84" y2="1018.36" gradientUnits="userSpaceOnUse">
<stop stop-color="#878787" stop-opacity="0"/>
<stop offset="0.491912" stop-color="#878787" stop-opacity="0.3"/>
<stop offset="1" stop-color="#868686" stop-opacity="0.5"/>
</linearGradient>
</defs>
</svg>
