<svg width="32" height="32" viewBox="0 0 32 32" fill="none" xmlns="http://www.w3.org/2000/svg">
<g filter="url(#filter0_d_22_259)">
<rect x="4" y="2" width="24" height="24" rx="2" fill="#FAFAFA"/>
<path d="M11.8333 8.99996V6.49996C11.8333 6.27895 11.9211 6.06698 12.0774 5.9107C12.2337 5.75442 12.4457 5.66663 12.6667 5.66663H22.6667C22.8877 5.66663 23.0996 5.75442 23.2559 5.9107C23.4122 6.06698 23.5 6.27895 23.5 6.49996V18.1666C23.5 18.3876 23.4122 18.5996 23.2559 18.7559C23.0996 18.9122 22.8877 19 22.6667 19H20.1667V21.5C20.1667 21.96 19.7917 22.3333 19.3275 22.3333H9.33917C9.22927 22.334 9.12033 22.3129 9.0186 22.2713C8.91687 22.2297 8.82436 22.1685 8.74638 22.091C8.6684 22.0136 8.60649 21.9215 8.56421 21.8201C8.52193 21.7186 8.50011 21.6099 8.5 21.5L8.5025 9.83329C8.5025 9.37329 8.8775 8.99996 9.34167 8.99996H11.8333ZM10.1692 10.6666L10.1667 20.6666H18.5V10.6666H10.1692ZM13.5 8.99996H20.1667V17.3333H21.8333V7.33329H13.5V8.99996Z" fill="#4B5A6D"/>
</g>
<defs>
<filter id="filter0_d_22_259" x="0" y="0" width="32" height="32" filterUnits="userSpaceOnUse" color-interpolation-filters="sRGB">
<feFlood flood-opacity="0" result="BackgroundImageFix"/>
<feColorMatrix in="SourceAlpha" type="matrix" values="0 0 0 0 0 0 0 0 0 0 0 0 0 0 0 0 0 0 127 0" result="hardAlpha"/>
<feOffset dy="2"/>
<feGaussianBlur stdDeviation="2"/>
<feComposite in2="hardAlpha" operator="out"/>
<feColorMatrix type="matrix" values="0 0 0 0 0.121569 0 0 0 0 0.121569 0 0 0 0 0.121569 0 0 0 0.25 0"/>
<feBlend mode="normal" in2="BackgroundImageFix" result="effect1_dropShadow_22_259"/>
<feBlend mode="normal" in="SourceGraphic" in2="effect1_dropShadow_22_259" result="shape"/>
</filter>
</defs>
</svg>
