<svg width="16" height="16" viewBox="0 0 16 16" fill="none" xmlns="http://www.w3.org/2000/svg">
<path d="M12.8799 6.66664H3.12652C2.13985 6.66664 1.33984 5.85997 1.33984 4.87997V3.12664C1.33984 2.13997 2.14652 1.33997 3.12652 1.33997H12.8799C13.8665 1.33997 14.6665 2.14664 14.6665 3.12664V4.87997C14.6665 5.85997 13.8599 6.66664 12.8799 6.66664Z" stroke="#5543DB" stroke-linecap="round" stroke-linejoin="round"/>
<path d="M12.8799 14.6666H3.12652C2.13985 14.6666 1.33984 13.86 1.33984 12.88V11.1266C1.33984 10.14 2.14652 9.33997 3.12652 9.33997H12.8799C13.8665 9.33997 14.6665 10.1466 14.6665 11.1266V12.88C14.6665 13.86 13.8599 14.6666 12.8799 14.6666Z" stroke="#5543DB" stroke-linecap="round" stroke-linejoin="round"/>
<path d="M4 3.33331V4.66665" stroke="#5543DB" stroke-linecap="round" stroke-linejoin="round"/>
<path d="M6.66699 3.33337V4.66671" stroke="#5543DB" stroke-linecap="round" stroke-linejoin="round"/>
<path d="M4 11.3333V12.6666" stroke="#5543DB" stroke-linecap="round" stroke-linejoin="round"/>
<path d="M6.66699 11.3334V12.6667" stroke="#5543DB" stroke-linecap="round" stroke-linejoin="round"/>
<path d="M9.33301 4H11.9997" stroke="#5543DB" stroke-linecap="round" stroke-linejoin="round"/>
<path d="M9.33301 12H11.9997" stroke="#5543DB" stroke-linecap="round" stroke-linejoin="round"/>
</svg>
