<svg width="40" height="40" viewBox="0 0 40 40" fill="none" xmlns="http://www.w3.org/2000/svg">
<path opacity="0.2" d="M32.1996 16.6666H7.81629C5.34962 16.6666 3.34961 14.65 3.34961 12.2V7.81664C3.34961 5.34998 5.36629 3.34998 7.81629 3.34998H32.1996C34.6663 3.34998 36.6663 5.36664 36.6663 7.81664V12.2C36.6663 14.65 34.6496 16.6666 32.1996 16.6666Z" fill="#5543DB"/>
<path opacity="0.2" d="M32.1996 36.6666H7.81629C5.34962 36.6666 3.34961 34.65 3.34961 32.2V27.8166C3.34961 25.35 5.36629 23.35 7.81629 23.35H32.1996C34.6663 23.35 36.6663 25.3666 36.6663 27.8166V32.2C36.6663 34.65 34.6496 36.6666 32.1996 36.6666Z" fill="#5543DB"/>
<path d="M10 12.9166C9.31667 12.9166 8.75 12.35 8.75 11.6666V8.33331C8.75 7.64998 9.31667 7.08331 10 7.08331C10.6833 7.08331 11.25 7.64998 11.25 8.33331V11.6666C11.25 12.35 10.6833 12.9166 10 12.9166Z" fill="#8F05D5"/>
<path d="M16.667 12.9166C15.9837 12.9166 15.417 12.35 15.417 11.6666V8.33331C15.417 7.64998 15.9837 7.08331 16.667 7.08331C17.3503 7.08331 17.917 7.64998 17.917 8.33331V11.6666C17.917 12.35 17.3503 12.9166 16.667 12.9166Z" fill="#8F05D5"/>
<path d="M10 32.9166C9.31667 32.9166 8.75 32.35 8.75 31.6666V28.3333C8.75 27.65 9.31667 27.0833 10 27.0833C10.6833 27.0833 11.25 27.65 11.25 28.3333V31.6666C11.25 32.35 10.6833 32.9166 10 32.9166Z" fill="#8F05D5"/>
<path d="M16.667 32.9166C15.9837 32.9166 15.417 32.35 15.417 31.6666V28.3333C15.417 27.65 15.9837 27.0833 16.667 27.0833C17.3503 27.0833 17.917 27.65 17.917 28.3333V31.6666C17.917 32.35 17.3503 32.9166 16.667 32.9166Z" fill="#8F05D5"/>
<path d="M29.9997 11.25H23.333C22.6497 11.25 22.083 10.6833 22.083 10C22.083 9.31667 22.6497 8.75 23.333 8.75H29.9997C30.683 8.75 31.2497 9.31667 31.2497 10C31.2497 10.6833 30.683 11.25 29.9997 11.25Z" fill="#8F05D5"/>
<path d="M29.9997 31.25H23.333C22.6497 31.25 22.083 30.6833 22.083 30C22.083 29.3167 22.6497 28.75 23.333 28.75H29.9997C30.683 28.75 31.2497 29.3167 31.2497 30C31.2497 30.6833 30.683 31.25 29.9997 31.25Z" fill="#8F05D5"/>
</svg>
